<svg xmlns="http://www.w3.org/2000/svg" viewBox="0 0 140 32">
  <defs>
    <linearGradient id="logoGradW" x1="0%" y1="0%" x2="100%" y2="100%">
      <stop offset="0%" style="stop-color:#2dd4bf"/>
      <stop offset="100%" style="stop-color:#5eead4"/>
    </linearGradient>
  </defs>
  
  <!-- Icono -->
  <g transform="translate(0, 0)">
    <!-- Fondo del icono -->
    <rect width="32" height="32" rx="7" fill="url(#logoGradW)"/>
    
    <!-- Edificio -->
    <rect x="5" y="10" width="12" height="16" rx="2" fill="white" opacity="0.95"/>
    <rect x="7.5" y="12.5" width="3" height="3" rx="0.5" fill="#0d9488"/>
    <rect x="12" y="12.5" width="3" height="3" rx="0.5" fill="#0d9488"/>
    <rect x="7.5" y="18" width="3" height="3" rx="0.5" fill="#0d9488"/>
    <rect x="12" y="18" width="3" height="3" rx="0.5" fill="#0d9488"/>
    <rect x="9.5" y="23" width="3" height="3" rx="0.5" fill="#4b5563"/>
    
    <!-- Mini calendario -->
    <g transform="translate(15, 5)">
      <rect width="12" height="10" rx="2" fill="white" opacity="0.95"/>
      <rect width="12" height="3.5" rx="2" fill="#4b5563"/>
      <rect y="2.5" width="12" height="1" fill="#4b5563"/>
      <rect x="2" y="5" width="2" height="1.5" rx="0.3" fill="#ccfbf1"/>
      <rect x="5" y="5" width="2" height="1.5" rx="0.3" fill="#2dd4bf"/>
      <rect x="8" y="5" width="2" height="1.5" rx="0.3" fill="#ccfbf1"/>
    </g>
    
    <!-- Check badge -->
    <circle cx="26" cy="24" r="5" fill="#4b5563"/>
    <path d="M23.5 24 L25 25.5 L28.5 22" stroke="white" stroke-width="1.3" stroke-linecap="round" stroke-linejoin="round" fill="none"/>
  </g>
  
  <!-- Texto -->
  <text x="40" y="22" font-family="system-ui, -apple-system, sans-serif" font-size="16" font-weight="700">
    <tspan fill="#5eead4">Space</tspan><tspan fill="#ffffff">Book</tspan>
  </text>
</svg>